<svg width="447" height="245" viewBox="0 0 447 245" fill="none" xmlns="http://www.w3.org/2000/svg">
<rect width="447" height="245" rx="16" fill="#FFFFFF"/>
<rect y="23" width="447" height="54" fill="#2F2F2F"/>
<rect x="45" y="101" width="361" height="38" rx="4" fill="#ADB5BE"/>
<path d="M133 173C133 171.895 133.895 171 135 171H247C248.105 171 249 171.895 249 173C249 174.105 248.105 175 247 175H135C133.895 175 133 174.105 133 173Z" fill="#606A78"/>
<path d="M203 195C203 193.895 203.895 193 205 193H317C318.105 193 319 193.895 319 195C319 196.105 318.105 197 317 197H205C203.895 197 203 196.105 203 195Z" fill="#606A78"/>
<path d="M148 195C148 193.895 148.895 193 150 193H169C170.105 193 171 193.895 171 195C171 196.105 170.105 197 169 197H150C148.895 197 148 196.105 148 195Z" fill="#606A78"/>
<path d="M147 184C147 182.895 147.895 182 149 182H168C169.105 182 170 182.895 170 184C170 185.105 169.105 186 168 186H149C147.895 186 147 185.105 147 184Z" fill="#606A78"/>
<path d="M176 184C176 182.895 176.895 182 178 182H234C235.105 182 236 182.895 236 184C236 185.105 235.105 186 234 186H178C176.895 186 176 185.105 176 184Z" fill="#606A78"/>
<path d="M241 184C241 182.895 241.895 182 243 182H286C287.105 182 288 182.895 288 184C288 185.105 287.105 186 286 186H243C241.895 186 241 185.105 241 184Z" fill="#606A78"/>
<path d="M293 184C293 182.895 293.895 182 295 182H301C302.105 182 303 182.895 303 184C303 185.105 302.105 186 301 186H295C293.895 186 293 185.105 293 184Z" fill="#606A78"/>
<path d="M310 173C310 171.895 310.895 171 312 171H317C318.105 171 319 171.895 319 173C319 174.105 318.105 175 317 175H312C310.895 175 310 174.105 310 173Z" fill="#606A78"/>
<path d="M175 195C175 193.895 175.895 193 177 193H196C197.105 193 198 193.895 198 195C198 196.105 197.105 197 196 197H177C175.895 197 175 196.105 175 195Z" fill="#606A78"/>
<path d="M254 173C254 171.895 254.895 171 256 171H275C276.105 171 277 171.895 277 173C277 174.105 276.105 175 275 175H256C254.895 175 254 174.105 254 173Z" fill="#606A78"/>
<path d="M282 173C282 171.895 282.895 171 284 171H303C304.105 171 305 171.895 305 173C305 174.105 304.105 175 303 175H284C282.895 175 282 174.105 282 173Z" fill="#606A78"/>
<path d="M133 195C133 193.895 133.895 193 135 193H141C142.105 193 143 193.895 143 195C143 196.105 142.105 197 141 197H135C133.895 197 133 196.105 133 195Z" fill="#606A78"/>
</svg>
