<svg width="80" height="81" viewBox="0 0 80 81" fill="none" xmlns="http://www.w3.org/2000/svg">
<path d="M50.8184 10.8673C50.8184 16.3902 46.3412 20.8673 40.8184 20.8673C35.2955 20.8673 30.8184 16.3902 30.8184 10.8673C30.8184 5.34446 35.2955 0.86731 40.8184 0.86731C46.3412 0.86731 50.8184 5.34446 50.8184 10.8673Z" fill="#6430DA"/>
<path d="M29.2158 18.205C29.2158 23.1755 25.1864 27.205 20.2158 27.205C15.2453 27.205 11.2158 23.1755 11.2158 18.205C11.2158 13.2344 15.2453 9.20496 20.2158 9.20496C25.1864 9.20496 29.2158 13.2344 29.2158 18.205Z" fill="#6430DA" fill-opacity="0.95"/>
<path d="M17.9824 37.2537C17.9824 42.0862 14.0649 46.0037 9.23242 46.0037C4.39993 46.0037 0.482422 42.0862 0.482422 37.2537C0.482422 32.4212 4.39993 28.5037 9.23242 28.5037C14.0649 28.5037 17.9824 32.4212 17.9824 37.2537Z" fill="#6430DA" fill-opacity="0.9"/>
<path d="M21.4067 58.8102C21.4067 63.3947 17.6902 67.1112 13.1057 67.1112C8.52117 67.1112 4.80469 63.3947 4.80469 58.8102C4.80469 54.2256 8.52117 50.5092 13.1057 50.5092C17.6902 50.5092 21.4067 54.2256 21.4067 58.8102Z" fill="#6430DA" fill-opacity="0.85"/>
<path d="M37.8151 72.9129C37.8151 77.306 34.2538 80.8673 29.8607 80.8673C25.4676 80.8673 21.9062 77.306 21.9062 72.9129C21.9062 68.5198 25.4676 64.9585 29.8607 64.9585C34.2538 64.9585 37.8151 68.5198 37.8151 72.9129Z" fill="#6430DA" fill-opacity="0.8"/>
<path d="M59.3506 72.913C59.3506 77.0551 55.9927 80.413 51.8506 80.413C47.7085 80.413 44.3506 77.0551 44.3506 72.913C44.3506 68.7708 47.7085 65.413 51.8506 65.413C55.9927 65.413 59.3506 68.7708 59.3506 72.913Z" fill="#6430DA" fill-opacity="0.8"/>
<path d="M75.7568 58.8429C75.7568 62.847 72.5109 66.0929 68.5068 66.0929C64.5028 66.0929 61.2568 62.847 61.2568 58.8429C61.2568 54.8388 64.5028 51.5929 68.5068 51.5929C72.5109 51.5929 75.7568 54.8388 75.7568 58.8429Z" fill="#6430DA" fill-opacity="0.75"/>
<path d="M79.0664 37.2898C79.0664 41.0177 76.0443 44.0398 72.3164 44.0398C68.5885 44.0398 65.5664 41.0177 65.5664 37.2898C65.5664 33.5619 68.5885 30.5398 72.3164 30.5398C76.0443 30.5398 79.0664 33.5619 79.0664 37.2898Z" fill="#6430DA" fill-opacity="0.7"/>
<path d="M68.3877 19.894C68.3877 23.3457 65.5895 26.144 62.1377 26.144C58.6859 26.144 55.8877 23.3457 55.8877 19.894C55.8877 16.4422 58.6859 13.644 62.1377 13.644C65.5895 13.644 68.3877 16.4422 68.3877 19.894Z" fill="#6430DA" fill-opacity="0.65"/>
</svg>
